<svg width="512" height="512" viewBox="0 0 512 512" fill="none" xmlns="http://www.w3.org/2000/svg">
  <rect x="16" y="16" width="480" height="480" rx="112" fill="#f4f4f5" stroke="#d4d4d8" stroke-width="4"/>
  <g transform="translate(31.05 97.75) scale(6.6)" stroke="#18181b" stroke-width="2.5" stroke-linecap="round" fill="none">
    <path d="M2 22v4"/>
    <path d="M6 20.5v7"/>
    <path d="M10 21.5v5"/>
    <path d="M14 19.5v9"/>
    <path d="M18 8v32"/>
    <path d="M22 5v38"/>
    <path d="M26 7v34"/>
    <path d="M30 11.5v10"/>
    <path d="M34 20v8"/>
    <path d="M38 26.5v10"/>
    <path d="M42 7v34"/>
    <path d="M46 5v38"/>
    <path d="M50 8v32"/>
    <path d="M54 19.5v9"/>
    <path d="M58 21.5v5"/>
    <path d="M62 20.5v7"/>
    <path d="M66 22v4"/>
  </g>
</svg>
